<?xml version="1.0" encoding="UTF-8" standalone="no"?>
<svg
   xmlns:dc="http://purl.org/dc/elements/1.1/"
   xmlns:cc="http://creativecommons.org/ns#"
   xmlns:rdf="http://www.w3.org/1999/02/22-rdf-syntax-ns#"
   xmlns:svg="http://www.w3.org/2000/svg"
   xmlns="http://www.w3.org/2000/svg"
   xmlns:xlink="http://www.w3.org/1999/xlink"
   xmlns:sodipodi="http://sodipodi.sourceforge.net/DTD/sodipodi-0.dtd"
   xmlns:inkscape="http://www.inkscape.org/namespaces/inkscape"
   inkscape:version="1.0beta2 (2b71d25, 2019-12-03)"
   sodipodi:docname="adventurer_vector.svg"
   id="svg1447"
   viewBox="0 0 600 100"
   height="100"
   width="600"
   y="0px"
   x="0px"
   preserveAspectRatio="none"
   version="1.1">
  <metadata
     id="metadata1451">
    <rdf:RDF>
      <cc:Work
         rdf:about="">
        <dc:format>image/svg+xml</dc:format>
        <dc:type
           rdf:resource="http://purl.org/dc/dcmitype/StillImage" />
        <dc:title />
      </cc:Work>
    </rdf:RDF>
  </metadata>
  <sodipodi:namedview
     inkscape:document-rotation="0"
     inkscape:snap-page="true"
     inkscape:current-layer="svg1447"
     inkscape:window-maximized="1"
     inkscape:window-y="23"
     inkscape:window-x="80"
     inkscape:cy="24.286955"
     inkscape:cx="205.18982"
     inkscape:zoom="1.59"
     inkscape:guide-bbox="true"
     showguides="true"
     showgrid="true"
     id="namedview1449"
     inkscape:window-height="1035"
     inkscape:window-width="1840"
     inkscape:pageshadow="2"
     inkscape:pageopacity="0"
     guidetolerance="10"
     gridtolerance="10"
     objecttolerance="10"
     borderopacity="1"
     bordercolor="#666666"
     pagecolor="#ffffff">
    <inkscape:grid
       originy="-1801.0904"
       originx="-14.275326"
       id="grid1549"
       type="xygrid" />
    <sodipodi:guide
       inkscape:locked="false"
       id="guide1551"
       orientation="1,0"
       position="-0.75844186,101.06077" />
    <sodipodi:guide
       inkscape:locked="false"
       id="guide5257"
       orientation="1,0"
       position="99.241558,101.06077" />
    <sodipodi:guide
       inkscape:locked="false"
       id="guide5259"
       orientation="1,0"
       position="199.24156,101.06077" />
    <sodipodi:guide
       inkscape:locked="false"
       id="guide5261"
       orientation="1,0"
       position="299.24156,101.06077" />
    <sodipodi:guide
       inkscape:locked="false"
       id="guide5263"
       orientation="1,0"
       position="399.24156,101.06077" />
    <sodipodi:guide
       inkscape:locked="false"
       id="guide5265"
       orientation="1,0"
       position="499.24156,101.06077" />
    <sodipodi:guide
       inkscape:locked="false"
       id="guide5267"
       orientation="1,0"
       position="599.24156,101.06077" />
    <sodipodi:guide
       inkscape:locked="false"
       id="guide5269"
       orientation="0,1"
       position="-0.75844186,101.06077" />
    <sodipodi:guide
       inkscape:locked="false"
       id="guide5271"
       orientation="0,1"
       position="-0.75844186,1.0607698" />
  </sodipodi:namedview>
  <defs
     id="defs126">
    <g
       id="Symbol_8_0_Layer0_0_FILL">
      <path
         style="fill:#e7e2da;stroke:none"
         inkscape:connector-curvature="0"
         id="path2"
         d="M 5.15,8.95 Q 5.1802734,8.8488281 5.2,8.75 L -9.7,6.05 q -1.713477,2.3453125 -0.25,5.6 l 1.05,-0.2 z" />
      <path
         style="fill:#637480;stroke:none"
         inkscape:connector-curvature="0"
         id="path4"
         d="M 5.7,8.85 6.2,5.9 -9.2,3.05 q -1.3,0.6 -0.5,3 l 14.9,2.7 z" />
      <path
         style="fill:#ffe0b1;stroke:none"
         inkscape:connector-curvature="0"
         id="path6"
         d="M -8.9,11.45 Q -9.2880859,16.873242 -8.95,22.25 -5.9,25.15 -1.4,26 3.2996094,18.134375 5.15,8.95 Z" />
      <path
         style="fill:#7e95a3;stroke:none"
         inkscape:connector-curvature="0"
         id="path8"
         d="M 5.6,-3.65 Q 3.75,-6.35 0.55,-6.9 H 0.5 Q -0.1,-7 -0.65,-7 -5.7,-7.15 -9.2,3.05 L 6.2,5.9 6.85,2.3 Q 7.45,-0.9 5.6,-3.65 Z" />
    </g>
    <g
       id="Symbol_9_0_Layer0_0_FILL">
      <path
         style="fill:#ffe0b1;stroke:none"
         inkscape:connector-curvature="0"
         id="path11"
         d="M 4.9,-1.85 Q 3.1,-6.8 0.65,-9 L -9,-6.45 q -1.2,0.3 -0.95,1.4 l 0.15,0.55 q 2.7,12.1 9.6,10.3 2.45,-0.6 4.85,-1.85 1.6,-0.8 1.3,-2 L 5.9,1.7 Q 5.5,0.25 5.1,-1.1 v 0.05 L 4.9,-1.85 M -8.15,-3 q -0.05,-0.45 1.1,-1.15 1.1,-0.7 2.8,-1.3 1.75,-0.55 2.95,-0.7 1.3,-0.1 1.35,0.3 0.1,0.45 -1,1.15 -1.1,0.75 -2.85,1.35 -1.7,0.6 -2.95,0.7 -1.3,0.1 -1.4,-0.35 z" />
      <path
         style="fill:#e7cba0;stroke:none"
         inkscape:connector-curvature="0"
         id="path13"
         d="m -7.05,-4.15 q -1.15,0.7 -1.1,1.15 0.1,0.45 1.4,0.35 1.25,-0.1 2.95,-0.7 1.75,-0.6 2.85,-1.35 1.1,-0.7 1,-1.15 -0.05,-0.4 -1.35,-0.3 -1.2,0.15 -2.95,0.7 -1.7,0.6 -2.8,1.3 M 5.1,-1.1 Q 8.2,-5.45 0.65,-9 3.1,-6.8 4.9,-1.85 l 0.2,0.8 z" />
    </g>
    <g
       id="Symbol_18_0_Layer0_0_FILL">
      <path
         style="fill:#b8824d;stroke:none"
         inkscape:connector-curvature="0"
         id="path16"
         d="M -19,5.95 V 10 H 20 V 5.95 h -39 m 0,-12.5 q 6.7,-1.7 5.5,-7.85 -0.8,-3.45 0.6,-6.6 H -19 V -6.55 M 13.9,-21 q 1.4,3.15 0.6,6.6 -1.2,6.15 5.5,7.85 V -21 Z" />
      <path
         style="fill:#7e95a3;stroke:none"
         inkscape:connector-curvature="0"
         id="path18"
         d="m 14.5,-14.4 q 0.8,-3.45 -0.6,-6.6 h -26.8 q -1.4,3.15 -0.6,6.6 1.2,6.15 -5.5,7.85 v 12.5 h 39 v -12.5 q -6.7,-1.7 -5.5,-7.85 z" />
    </g>
    <g
       id="Symbol_18_0_Layer0_1_FILL">
      <path
         style="fill:#000000;fill-opacity:0.10196078;stroke:none"
         inkscape:connector-curvature="0"
         id="path21"
         d="m -41.35,5.75 h -3.55 -10.95 -3.5 q 9,2.3 18,0 z" />
      <path
         style="fill:#9c6e41;stroke:none"
         inkscape:connector-curvature="0"
         id="path23"
         d="m -46.6,-1.6 h -7.5 l -2.55,2.35 0.8,5 h 10.95 l 0.85,-5 -2.55,-2.35 m -4.8,-9.15 q 0,0.45 0.3,0.75 0.3,0.35 0.75,0.35 0.45,0 0.75,-0.35 0.3,-0.3 0.3,-0.75 0,-0.4 -0.3,-0.75 -0.3,-0.3 -0.75,-0.3 -0.45,0 -0.75,0.3 -0.3,0.35 -0.3,0.75 m -10,0.4 v 2 l 11.05,1.6 11.05,-1.6 v -2 l -11.05,1.6 z" />
      <path
         style="fill:#b8824d;stroke:none"
         inkscape:connector-curvature="0"
         id="path25"
         d="m -54.1,-1.6 h 7.5 l 2.55,2.35 -0.85,5 h 3.55 1 q 1.05,0 1.05,-1.05 V -8.35 l -11.05,1.6 -11.05,-1.6 V 4.7 q 0,1.05 1.05,1.05 h 1 3.5 l -0.8,-5 2.55,-2.35 m -7.3,-15.6 v 6.85 l 11.05,1.6 11.05,-1.6 v -6.85 q 0,-1.05 -1.05,-1.05 h -20 q -1.05,0 -1.05,1.05 m 10.3,7.2 q -0.3,-0.3 -0.3,-0.75 0,-0.4 0.3,-0.75 0.3,-0.3 0.75,-0.3 0.45,0 0.75,0.3 0.3,0.35 0.3,0.75 0,0.45 -0.3,0.75 -0.3,0.35 -0.75,0.35 -0.45,0 -0.75,-0.35 z" />
    </g>
    <g
       id="Symbol_17_0_Layer0_0_FILL">
      <path
         style="fill:#d7bd93;stroke:none"
         inkscape:connector-curvature="0"
         id="path28"
         d="M -7.35,1.7 Q -4.4,3.65 -0.2,3.65 4,3.65 6.95,1.7 8.7,0.55 9.4,-0.9 H -9.8 q 0.7,1.45 2.45,2.6 z" />
      <path
         style="fill:#ffe0b1;stroke:none"
         inkscape:connector-curvature="0"
         id="path30"
         d="M 19.15,-5.45 Q 20.7,-15.55 19.1,-26.1 18.45,-30.55 14,-30.55 h -30.35 q -4.4,0 -5.1,4.55 -1.5,10.3 0,20.6 0.7,4.5 5.1,4.5 H -9.8 9.4 14 q 4.45,0 5.15,-4.55 z" />
    </g>
    <g
       id="Symbol_17_0_Layer0_1_FILL">
      <path
         style="fill:#5d5454;stroke:none"
         inkscape:connector-curvature="0"
         id="path33"
         d="M 0,-6.35 19.8,-13.2 Q -1,-7.6251953 -21.8,-12.3 L 0,-6.35 m 14.15,-41.2 q 0.604687,-0.64082 1.5,-0.8 -8.6,-1.25 -19.95,3.05 -0.25,0.05 -0.5,0.15 -5.7,1.7 -13.05,5.1 l -1.25,3.1 -3.1,-1.35 -3,6.75 q -2.688672,7.201953 2.55,19 0.219531,0.50332 0.45,1 l 0.3,-0.8 5.7,-14.1 q 8.8425781,-15.671875 30.35,-21.1 m -1.1,3.1 4.1,18.75 3.5,6.4 v -15 z" />
      <path
         style="fill:#544b4b;stroke:none"
         inkscape:connector-curvature="0"
         id="path35"
         d="m 13.05,-44.45 q 0.210742,-2.107227 1.1,-3.1 -21.5074219,5.428125 -30.35,21.1 l -5.7,14.1 0.1,0.05 q 20.8,4.6748047 41.6,-0.9 l 0.85,-6.1 -3.5,-6.4 z" />
    </g>
    <g
       id="Symbol_16_0_Layer0_0_MEMBER_0_FILL">
      <path
         style="fill:#d7bd93;stroke:none"
         inkscape:connector-curvature="0"
         id="path38"
         d="M 6.6,3.15 Q 8.35,2 9.05,0.55 h -19.2 q 0.7,1.45 2.45,2.6 2.95,1.95 7.15,1.95 4.2,0 7.15,-1.95 z" />
      <path
         style="fill:#ffe0b1;stroke:none"
         inkscape:connector-curvature="0"
         id="path40"
         d="m 13.75,-7.5 q 4.65,1.6 5.8,-4.6 0.05,-2.7 -0.05,-5.45 -0.2,-3.5 -0.75,-7.1 -0.65,-4.45 -5.1,-4.45 H -16.7 q -4.4,0 -5.1,4.55 -0.55,3.9 -0.7,7.85 3.25,11.25 8.45,8.85 1.15,-0.45 2.35,-0.8 4.95,-1.5 11.1,-1.5 8.2,0 14.35,2.65 z" />
      <path
         style="fill:#e7e2da;stroke:none"
         inkscape:connector-curvature="0"
         id="path42"
         d="m 18.9,-4.45 q 0.55,-3.8 0.65,-7.65 -1.15,6.2 -5.8,4.6 -6.15,-2.65 -14.35,-2.65 -6.15,0 -11.1,1.5 -1.2,0.35 -2.35,0.8 -5.2,2.4 -8.45,-8.85 -0.25,6.35 0.7,12.75 0.1,0.55 0.25,1 0.15,0.7 0.5,1.25 1.25,2.25 4.35,2.25 h 6.55 19.2 4.6 q 4.2,0 5.05,-4 0.05,-0.3 0.1,-0.55 0.05,-0.25 0.1,-0.45 z" />
    </g>
    <g
       id="Symbol_16_0_Layer0_1_FILL">
      <path
         style="fill:#ffffff;stroke:none"
         inkscape:connector-curvature="0"
         id="path45"
         d="m -5.1,-17.55 q -1,-1.1 -2.55,-1.1 -1.55,0 -2.65,1.1 -1,1.15 -1,2.7 0,1.55 1,2.65 1.1,1.15 2.65,1.15 1.55,0 2.55,-1.15 1.1,-1.1 1.1,-2.65 0,-1.55 -1.1,-2.7 m 19.7,2.7 q 0,-1.55 -1.1,-2.7 -1,-1.1 -2.55,-1.1 -1.55,0 -2.65,1.1 -1,1.15 -1,2.7 0,1.55 1,2.65 1.1,1.15 2.65,1.15 1.55,0 2.55,-1.15 1.1,-1.1 1.1,-2.65 z" />
      <path
         style="fill:#544b4b;stroke:none"
         inkscape:connector-curvature="0"
         id="path47"
         d="m 7.55,-22.6 -0.65,3.2 h 8.8 q -2.75,-3.45 -8.15,-3.2 m -11.5,2.3 -0.65,-3.2 q -5.4,-0.25 -8.15,3.2 z" />
    </g>
    <g
       id="Symbol_16_0_Layer0_1_MEMBER_0_FILL">
      <path
         style="fill:#7f7058;stroke:none"
         inkscape:connector-curvature="0"
         id="path50"
         d="m -62.55,-10.95 h -7 q -0.25,0.35 -0.45,0.75 -0.25,0.45 -0.35,0.95 -0.1,0.35 0,0.6 0.1,0.35 0.4,0.5 0.25,0.2 0.55,0.2 h 9.7 q 0.3,0 0.6,-0.2 0.25,-0.15 0.35,-0.5 0.1,-0.25 0.05,-0.6 -0.15,-0.5 -0.4,-0.95 -0.45,-0.9 -1.2,-1.65 l -0.05,-0.05 q -1,-1 -2.25,-1.45 z" />
      <path
         style="fill:#ffffff;stroke:none"
         inkscape:connector-curvature="0"
         id="path52"
         d="m -62.6,-13.35 q -0.9,-0.3 -1.95,-0.3 -2.45,0 -4.25,1.8 -0.45,0.4 -0.75,0.9 h 7 z" />
    </g>
    <g
       id="Symbol_16_0_Layer0_1_MEMBER_1_FILL">
      <path
         style="fill:#7f7058;stroke:none"
         inkscape:connector-curvature="0"
         id="path55"
         d="m -4.6,-12.65 q 0.65,-0.9 0.65,-2.2 0,-1.3 -0.65,-2.25 -0.6,-0.9 -1.5,-0.9 -0.9,0 -1.55,0.9 -0.6,0.95 -0.6,2.25 0,1.3 0.6,2.2 0.65,0.95 1.55,0.95 0.9,0 1.5,-0.95 m 16.85,0 q 0.65,-0.9 0.65,-2.2 0,-1.3 -0.65,-2.25 -0.6,-0.9 -1.5,-0.9 -0.9,0 -1.55,0.9 -0.6,0.95 -0.6,2.25 0,1.3 0.6,2.2 0.65,0.95 1.55,0.95 0.9,0 1.5,-0.95 z" />
    </g>
    <g
       id="Symbol_16_0_Layer0_2_FILL">
      <path
         style="fill:#5d5454;stroke:none"
         inkscape:connector-curvature="0"
         id="path58"
         d="m 14.15,-47.55 q 0.604687,-0.64082 1.5,-0.8 -8.6,-1.25 -19.95,3.05 -0.25,0.05 -0.5,0.15 -5.7,1.7 -13.05,5.1 l -1.25,3.1 -3.1,-1.35 -3,6.75 q -2.8,7.5 3,20 l 6,-14.9 q 8.8425781,-15.671875 30.35,-21.1 m -1.1,3.1 4.1,18.75 2.4,8.15 1.1,-16.75 z" />
      <path
         style="fill:#544b4b;stroke:none"
         inkscape:connector-curvature="0"
         id="path60"
         d="m 1.7,-25.9 q 7.2099609,1.586133 15.45,0.2 l -4.1,-18.75 q 0.210742,-2.107227 1.1,-3.1 -21.5074219,5.428125 -30.35,21.1 5.333008,-2.748437 11.1,-1.45 3.0197266,0.873047 5.1,3.55 z" />
    </g>
    <g
       id="Symbol_11_0_Layer0_0_FILL">
      <path
         style="fill:#916b4e;stroke:none"
         inkscape:connector-curvature="0"
         id="path63"
         d="M 8.95,9.25 9,6.35 H -8.75 v 2 z" />
      <path
         style="fill:#aa7e5c;stroke:none"
         inkscape:connector-curvature="0"
         id="path65"
         d="M 8.95,16 V 9.25 L -8.75,8.35 -7.2,11 h -1.55 q -1.8,0.9 -3.25,2.85 V 16 Z" />
      <path
         style="fill:#e0c1a2;stroke:none"
         inkscape:connector-curvature="0"
         id="path67"
         d="M 9,6.35 V 2.95 H -8.75 v 3.4 z" />
      <path
         style="fill:#eccfb1;stroke:none"
         inkscape:connector-curvature="0"
         id="path69"
         d="M 6.45,-4.5 Q 3.85,-7 0.15,-7 H 0.1 q -3.7,0 -6.25,2.5 -2.6,2.55 -2.6,6.2 V 2.95 H 9 V 1.7 Q 9,-1.95 6.45,-4.5 Z" />
    </g>
    <g
       id="Symbol_10_0_Layer0_0_FILL">
      <path
         style="fill:#b8824d;stroke:none"
         inkscape:connector-curvature="0"
         id="path72"
         d="M 20,10 V 5.95 H -5.6 -16.55 -19 V 10 h 39 m -31.1,-28.6 q -0.65,-1.15 -1.5,-2.4 H -19 v 17.45 q 12.9,-2.2 9.5,-11.65 l -2.3,-1.2 q 0.15,-1.15 0.7,-2.2 M 20,-21 h -6.1 q 1.4,3.15 0.6,6.6 -1.2,6.15 5.5,7.85 z" />
      <path
         style="fill:#e0c79a;stroke:none"
         inkscape:connector-curvature="0"
         id="path74"
         d="M 2.6,-9.1 13.9,-21 H -9.3 Z" />
      <path
         style="fill:#637480;stroke:none"
         inkscape:connector-curvature="0"
         id="path76"
         d="m 14.5,-14.4 q 0.8,-3.45 -0.6,-6.6 L 2.6,-9.1 14.5,-14.4 m -25.6,-4.2 q -0.55,1.05 -0.7,2.2 l 2.3,1.2 L 2.6,-9.1 -9.3,-21 q -1.15,1.1 -1.8,2.4 z" />
      <path
         style="fill:#7e95a3;stroke:none"
         inkscape:connector-curvature="0"
         id="path78"
         d="m -9.5,-15.2 q 3.4,9.45 -9.5,11.65 v 9.5 h 2.45 L -9.3,0.9 -5.6,5.95 H 20 v -12.5 q -6.7,-1.7 -5.5,-7.85 L 2.6,-9.1 -9.5,-15.2 m 13.25,9.7 q -0.5,-0.45 -0.5,-1.05 0,-0.6 0.5,-1.1 0.45,-0.45 1.05,-0.45 0.6,0 1.05,0.45 0.45,0.5 0.45,1.1 0,0.6 -0.45,1.05 -0.45,0.45 -1.05,0.45 -0.6,0 -1.05,-0.45 M 2.4,-1.2 q 3.6,0 6.15,0.65 2.3,0.65 2.55,1.45 H -6.25 q 0.2,-0.8 2.5,-1.45 Q -1.2,-1.2 2.4,-1.2 m -15,-19.8 q 0.85,1.25 1.5,2.4 0.65,-1.3 1.8,-2.4 z" />
      <path
         style="fill:#738895;stroke:none"
         inkscape:connector-curvature="0"
         id="path80"
         d="M 8.55,-0.55 Q 6,-1.2 2.4,-1.2 q -3.6,0 -6.15,0.65 -2.3,0.65 -2.5,1.45 H 11.1 Q 10.85,0.1 8.55,-0.55 Z" />
      <path
         style="fill:#e7e2da;stroke:none"
         inkscape:connector-curvature="0"
         id="path82"
         d="m 3.25,-6.55 q 0,0.6 0.5,1.05 0.45,0.45 1.05,0.45 0.6,0 1.05,-0.45 0.45,-0.45 0.45,-1.05 0,-0.6 -0.45,-1.1 Q 5.4,-8.1 4.8,-8.1 q -0.6,0 -1.05,0.45 -0.5,0.5 -0.5,1.1 M -9.3,0.9 -16.55,5.95 H -5.6 Z" />
    </g>
    <g
       id="Symbol_12_0_Layer0_0_MEMBER_0_FILL">
      <path
         style="fill:#d7bd93;stroke:none"
         inkscape:connector-curvature="0"
         id="path85"
         d="m 923.8,609.2 q 4.2,0 7.15,-1.95 1.75,-1.15 2.45,-2.6 h -19.2 q 0.7,1.45 2.45,2.6 2.95,1.95 7.15,1.95 z" />
      <path
         style="fill:#e7e2da;stroke:none"
         inkscape:connector-curvature="0"
         id="path87"
         d="m 943.15,600.1 q 0.05,-0.25 0.1,-0.45 0.55,-3.8 0.65,-7.65 -1.15,6.2 -5.8,4.6 -6.15,-2.65 -14.35,-2.65 -6.15,0 -11.1,1.5 -1.2,0.35 -2.35,0.8 -5.2,2.4 -8.45,-8.85 -0.25,6.35 0.7,12.75 0.1,0.55 0.25,1 0.15,0.7 0.5,1.25 1.25,2.25 4.35,2.25 h 6.55 19.2 4.6 q 4.2,0 5.05,-4 0.05,-0.3 0.1,-0.55 z" />
      <path
         style="fill:#ffe0b1;stroke:none"
         inkscape:connector-curvature="0"
         id="path89"
         d="m 902.55,579.55 q -0.55,3.9 -0.7,7.85 3.25,11.25 8.45,8.85 1.15,-0.45 2.35,-0.8 4.95,-1.5 11.1,-1.5 8.2,0 14.35,2.65 4.65,1.6 5.8,-4.6 0.05,-2.7 -0.05,-5.45 -0.2,-3.5 -0.75,-7.1 Q 942.45,575 938,575 h -30.35 q -4.4,0 -5.1,4.55 z" />
    </g>
    <g
       id="Symbol_12_0_Layer0_1_FILL">
      <path
         style="fill:#544b4b;stroke:none"
         inkscape:connector-curvature="0"
         id="path92"
         d="m 7.55,-21.6 -0.65,3.2 h 8.8 q -2.75,-3.45 -8.15,-3.2 m -11.5,4.3 -0.65,-3.2 q -5.4,-0.25 -8.15,3.2 z" />
      <path
         style="fill:#7f7058;stroke:none"
         inkscape:connector-curvature="0"
         id="path94"
         d="m -8.95,-15.15 q -0.1,0.45 -0.1,0.95 0,1.3 0.6,2.2 0.15,0.2 0.3,0.35 0.55,0.6 1.25,0.6 0.7,0 1.25,-0.6 0.15,-0.15 0.25,-0.35 0.65,-0.9 0.65,-2.2 0,-0.5 -0.1,-0.95 h -4.1 m 21.05,0.95 q 0,-0.5 -0.1,-0.95 H 7.9 q -0.1,0.45 -0.1,0.95 0,1.3 0.6,2.2 0.15,0.2 0.3,0.35 0.55,0.6 1.25,0.6 0.7,0 1.25,-0.6 0.15,-0.15 0.25,-0.35 0.65,-0.9 0.65,-2.2 M 6.5,-8.45 Q 6.2,-8.65 5.9,-8.65 H 3.05 v 3 h -7 q 0.3,0.5 0.75,0.9 1.8,1.8 4.25,1.8 2.45,0 4.2,-1.75 L 5.3,-4.75 Q 6.05,-5.5 6.5,-6.4 6.75,-6.85 6.9,-7.35 6.95,-7.7 6.85,-7.95 6.75,-8.3 6.5,-8.45 Z" />
      <path
         style="fill:#ffffff;stroke:none"
         inkscape:connector-curvature="0"
         id="path96"
         d="m -9.05,-14.2 q 0,-0.5 0.1,-0.95 h -2.25 q -0.1,0.45 -0.1,0.95 0,1.5 0.9,2.55 0.05,0.05 0.1,0.1 1.1,1.15 2.65,1.15 1.55,0 2.55,-1.15 0.05,-0.05 0.1,-0.1 1,-1.05 1,-2.55 0,-0.5 -0.1,-0.95 h -0.75 q 0.1,0.45 0.1,0.95 0,1.3 -0.65,2.2 -0.1,0.2 -0.25,0.35 -0.55,0.6 -1.25,0.6 -0.7,0 -1.25,-0.6 -0.15,-0.15 -0.3,-0.35 -0.6,-0.9 -0.6,-2.2 M 12,-15.15 q 0.1,0.45 0.1,0.95 0,1.3 -0.65,2.2 -0.1,0.2 -0.25,0.35 -0.55,0.6 -1.25,0.6 -0.7,0 -1.25,-0.6 -0.15,-0.15 -0.3,-0.35 -0.6,-0.9 -0.6,-2.2 0,-0.5 0.1,-0.95 H 7.4 q -0.1,0.45 -0.1,0.95 0,1.5 0.9,2.55 0.05,0.05 0.1,0.1 1.1,1.15 2.65,1.15 1.55,0 2.55,-1.15 0.05,-0.05 0.1,-0.1 1,-1.05 1,-2.55 0,-0.5 -0.1,-0.95 H 12 m -8.95,9.5 v -3 H -3.8 q -0.3,0 -0.55,0.2 -0.3,0.15 -0.4,0.5 -0.1,0.25 0,0.6 0.1,0.5 0.35,0.95 0.2,0.4 0.45,0.75 z" />
    </g>
    <g
       id="Symbol_12_0_Layer0_2_FILL">
      <path
         style="fill:#544b4b;stroke:none"
         inkscape:connector-curvature="0"
         id="path99"
         d="m 1.7,-25.9 q 7.2099609,1.586133 15.45,0.2 l -4.1,-18.75 q 0.210742,-2.107227 1.1,-3.1 -21.5074219,5.428125 -30.35,21.1 5.333008,-2.748437 11.1,-1.45 3.0197266,0.873047 5.1,3.55 z" />
      <path
         style="fill:#5d5454;stroke:none"
         inkscape:connector-curvature="0"
         id="path101"
         d="m 13.05,-44.45 4.1,18.75 2.4,8.15 1.1,-16.75 -7.6,-10.15 m 1.1,-3.1 q 0.604687,-0.64082 1.5,-0.8 -8.6,-1.25 -19.95,3.05 -0.25,0.05 -0.5,0.15 -5.7,1.7 -13.05,5.1 l -1.25,3.1 -3.1,-1.35 -3,6.75 q -2.8,7.5 3,20 l 6,-14.9 q 8.8425781,-15.671875 30.35,-21.1 z" />
    </g>
    <g
       id="Symbol_15_0_Layer0_0_MEMBER_0_FILL">
      <path
         style="fill:#d7bd93;stroke:none"
         inkscape:connector-curvature="0"
         id="path104"
         d="M 6.6,3.15 Q 8.35,2 9.05,0.55 h -19.2 q 0.7,1.45 2.45,2.6 2.95,1.95 7.15,1.95 4.2,0 7.15,-1.95 z" />
      <path
         style="fill:#ffe0b1;stroke:none"
         inkscape:connector-curvature="0"
         id="path106"
         d="m 13.75,-7.5 q 4.65,1.6 5.8,-4.6 0.05,-2.7 -0.05,-5.45 -0.2,-3.5 -0.75,-7.1 -0.65,-4.45 -5.1,-4.45 H -16.7 q -4.4,0 -5.1,4.55 -0.55,3.9 -0.7,7.85 3.25,11.25 8.45,8.85 1.15,-0.45 2.35,-0.8 4.95,-1.5 11.1,-1.5 8.2,0 14.35,2.65 z" />
      <path
         style="fill:#e7e2da;stroke:none"
         inkscape:connector-curvature="0"
         id="path108"
         d="m 18.9,-4.45 q 0.55,-3.8 0.65,-7.65 -1.15,6.2 -5.8,4.6 -6.15,-2.65 -14.35,-2.65 -6.15,0 -11.1,1.5 -1.2,0.35 -2.35,0.8 -5.2,2.4 -8.45,-8.85 -0.25,6.35 0.7,12.75 0.1,0.55 0.25,1 0.15,0.7 0.5,1.25 1.25,2.25 4.35,2.25 h 6.55 19.2 4.6 q 4.2,0 5.05,-4 0.05,-0.3 0.1,-0.55 0.05,-0.25 0.1,-0.45 z" />
    </g>
    <g
       id="Symbol_15_0_Layer0_1_FILL">
      <path
         style="fill:#544b4b;stroke:none"
         inkscape:connector-curvature="0"
         id="path111"
         d="m 6.3,-21.6 0.2,3.25 8.5,-2.25 q -3.55,-2.6 -8.7,-1 m -9.8,1.4 0.2,-3.3 q -5.15,-1.65 -8.7,1 z" />
      <path
         style="fill:#7f7058;stroke:none"
         inkscape:connector-curvature="0"
         id="path113"
         d="M 7.65,-5.7 Q 8.05,-5.85 8.25,-6.2 8.4,-6.55 8.3,-6.95 8.15,-7.35 7.8,-7.5 7.45,-7.7 7.05,-7.6 1.7,-5.9 -2.25,-8.45 -2.6,-8.7 -3,-8.6 q -0.4,0.05 -0.6,0.4 -0.25,0.35 -0.15,0.75 0.05,0.4 0.4,0.65 4.65,3.1 11,1.1 z" />
      <path
         style="fill:#ffffff;stroke:none"
         inkscape:connector-curvature="0"
         id="path115"
         d="m -5.1,-17.55 q -1,-1.1 -2.55,-1.1 -1.55,0 -2.65,1.1 -1,1.15 -1,2.7 0,1.55 1,2.65 1.1,1.15 2.65,1.15 1.55,0 2.55,-1.15 1.1,-1.1 1.1,-2.65 0,-1.55 -1.1,-2.7 m 18.6,0 q -1,-1.1 -2.55,-1.1 -1.55,0 -2.65,1.1 -1,1.15 -1,2.7 0,1.55 1,2.65 1.1,1.15 2.65,1.15 1.55,0 2.55,-1.15 1.1,-1.1 1.1,-2.65 0,-1.55 -1.1,-2.7 z" />
    </g>
    <g
       id="Symbol_15_0_Layer0_1_MEMBER_0_FILL">
      <path
         style="fill:#7f7058;stroke:none"
         inkscape:connector-curvature="0"
         id="path118"
         d="m -5.4,-12.65 q 0.65,-0.9 0.65,-2.2 0,-1.3 -0.65,-2.25 -0.6,-0.9 -1.5,-0.9 -0.9,0 -1.55,0.9 -0.6,0.95 -0.6,2.25 0,1.3 0.6,2.2 0.65,0.95 1.55,0.95 0.9,0 1.5,-0.95 m 16.85,0 q 0.65,-0.9 0.65,-2.2 0,-1.3 -0.65,-2.25 -0.6,-0.9 -1.5,-0.9 -0.9,0 -1.55,0.9 -0.6,0.95 -0.6,2.25 0,1.3 0.6,2.2 0.65,0.95 1.55,0.95 0.9,0 1.5,-0.95 z" />
    </g>
    <g
       id="Symbol_15_0_Layer0_2_FILL">
      <path
         style="fill:#5d5454;stroke:none"
         inkscape:connector-curvature="0"
         id="path121"
         d="m 14.15,-47.55 q 0.604687,-0.64082 1.5,-0.8 -8.6,-1.25 -19.95,3.05 -0.25,0.05 -0.5,0.15 -5.7,1.7 -13.05,5.1 l -1.25,3.1 -3.1,-1.35 -3,6.75 q -2.8,7.5 3,20 l 6,-14.9 q 8.8425781,-15.671875 30.35,-21.1 m -1.1,3.1 4.1,18.75 2.4,8.15 1.1,-16.75 z" />
      <path
         style="fill:#544b4b;stroke:none"
         inkscape:connector-curvature="0"
         id="path123"
         d="m 1.7,-25.9 q 7.2099609,1.586133 15.45,0.2 l -4.1,-18.75 q 0.210742,-2.107227 1.1,-3.1 -21.5074219,5.428125 -30.35,21.1 5.333008,-2.748437 11.1,-1.45 3.0197266,0.873047 5.1,3.55 z" />
    </g>
  </defs>
  <g
     transform="matrix(-0.91807556,-0.43737793,-0.25880432,0.96592712,529.48865,78.377105)"
     id="legLeft_FL_FL_FL">
    <g
       id="g346">
      <use
         height="100%"
         width="100%"
         y="0"
         x="0"
         id="use344"
         xlink:href="#Symbol_11_0_Layer0_0_FILL" />
    </g>
  </g>
  <g
     transform="matrix(-1.0137787,0.08023071,0.25880432,0.96592712,553.58865,83.827105)"
     id="legRight_FL_FL_FL">
    <g
       id="g351">
      <use
         height="100%"
         width="100%"
         y="0"
         x="0"
         id="use349"
         xlink:href="#Symbol_11_0_Layer0_0_FILL" />
    </g>
  </g>
  <g
     transform="matrix(1.0014038,0.02706909,-0.08673096,0.99623108,540.28865,72.127105)"
     id="body_FL_FL_FL">
    <g
       id="g356">
      <use
         height="100%"
         width="100%"
         y="0"
         x="0"
         id="use354"
         xlink:href="#Symbol_10_0_Layer0_0_FILL" />
    </g>
  </g>
  <g
     transform="matrix(0.70710754,0.70709229,-0.70709229,0.70710754,524.83865,56.727095)"
     id="armLeft_FL_FL_FL_FL">
    <g
       id="g361">
      <use
         height="100%"
         width="100%"
         y="0"
         x="0"
         id="use359"
         xlink:href="#Symbol_8_0_Layer0_0_FILL" />
    </g>
  </g>
  <g
     transform="matrix(0.86602783,0.49998474,-0.49998474,0.86602783,509.18865,75.727105)"
     id="handLeft_FL_FL_FL_FL">
    <g
       id="g366">
      <use
         height="100%"
         width="100%"
         y="0"
         x="0"
         id="use364"
         xlink:href="#Symbol_9_0_Layer0_0_FILL" />
    </g>
  </g>
  <g
     transform="matrix(-0.86601257,0.5,0.5,0.86601257,560.03865,59.227095)"
     id="armRight_FL_FL_FL_FL_FL">
    <g
       id="g371">
      <use
         height="100%"
         width="100%"
         y="0"
         x="0"
         id="use369"
         xlink:href="#Symbol_8_0_Layer0_0_FILL" />
    </g>
  </g>
  <g
     transform="matrix(-0.96592712,0.25880432,0.25880432,0.96592712,570.33865,81.877105)"
     id="handRight_FL_FL_FL_FL_FL">
    <g
       id="g376">
      <use
         height="100%"
         width="100%"
         y="0"
         x="0"
         id="use374"
         xlink:href="#Symbol_9_0_Layer0_0_FILL" />
    </g>
  </g>
  <g
     transform="matrix(-0.70710754,-0.70709229,-0.70709229,0.70710754,226.67467,80.3096)"
     id="legLeft_FL_FL_FL_FL_FL_FL">
    <g
       id="g451">
      <use
         height="100%"
         width="100%"
         y="0"
         x="0"
         id="use449"
         xlink:href="#Symbol_11_0_Layer0_0_FILL" />
    </g>
  </g>
  <g
     transform="matrix(-1,0,0,1,257.02467,60.3096)"
     id="armRight_FL_FL_FL_FL_FL_FL_FL_FL">
    <g
       id="g456">
      <use
         height="100%"
         width="100%"
         y="0"
         x="0"
         id="use454"
         xlink:href="#Symbol_8_0_Layer0_0_FILL" />
    </g>
  </g>
  <g
     transform="matrix(0.96591187,-0.25881958,0.25881958,0.96591187,264.07467,83.4596)"
     id="handRight_FL_FL_FL_FL_FL_FL_FL_FL">
    <g
       id="g461">
      <use
         height="100%"
         width="100%"
         y="0"
         x="0"
         id="use459"
         xlink:href="#Symbol_9_0_Layer0_0_FILL" />
    </g>
  </g>
  <g
     transform="matrix(-0.70710754,0.70709229,0.70709229,0.70710754,250.32467,82.8096)"
     id="legRight_FL_FL_FL_FL_FL_FL">
    <g
       id="g466">
      <use
         height="100%"
         width="100%"
         y="0"
         x="0"
         id="use464"
         xlink:href="#Symbol_11_0_Layer0_0_FILL" />
    </g>
  </g>
  <g
     transform="rotate(-3.9539382,1190.2016,-3407.2047)"
     id="body_FL_FL_FL_FL_FL_FL">
    <g
       id="g471">
      <use
         height="100%"
         width="100%"
         y="0"
         x="0"
         id="use469"
         xlink:href="#Symbol_10_0_Layer0_0_FILL" />
    </g>
  </g>
  <g
     transform="matrix(0.86602783,0.49998474,-0.49998474,0.86602783,219.32467,60.3096)"
     id="armLeft_FL_FL_FL_FL_FL_FL_FL">
    <g
       id="g476">
      <use
         height="100%"
         width="100%"
         y="0"
         x="0"
         id="use474"
         xlink:href="#Symbol_8_0_Layer0_0_FILL" />
    </g>
  </g>
  <g
     transform="matrix(0.7071228,0.70707703,-0.70707703,0.7071228,206.62466,81.4596)"
     id="handLeft_FL_FL_FL_FL_FL_FL_FL">
    <g
       id="g481">
      <use
         height="100%"
         width="100%"
         y="0"
         x="0"
         id="use479"
         xlink:href="#Symbol_9_0_Layer0_0_FILL" />
    </g>
  </g>
  <g
     transform="translate(237.67467,56.2096)"
     id="head_FL_FL_FL">
    <g
       id="g486"
       transform="translate(-924.35,-604.1)">
      <use
         height="100%"
         width="100%"
         y="0"
         x="0"
         id="use484"
         xlink:href="#Symbol_12_0_Layer0_0_MEMBER_0_FILL" />
    </g>
    <g
       id="g490">
      <use
         height="100%"
         width="100%"
         y="0"
         x="0"
         id="use488"
         xlink:href="#Symbol_12_0_Layer0_1_FILL" />
    </g>
    <g
       id="g494">
      <use
         height="100%"
         width="100%"
         y="0"
         x="0"
         id="use492"
         xlink:href="#Symbol_12_0_Layer0_2_FILL" />
    </g>
  </g>
  <g
     transform="translate(422.11458,82.818135)"
     id="legLeft_FL_FL_FL_FL_FL_FL_FL_FL">
    <g
       id="g547">
      <use
         height="100%"
         width="100%"
         y="0"
         x="0"
         id="use545"
         xlink:href="#Symbol_11_0_Layer0_0_FILL" />
    </g>
  </g>
  <g
     transform="matrix(-1,0,0,1,443.26458,82.818135)"
     id="legRight_FL_FL_FL_FL_FL_FL_FL_FL">
    <g
       id="g552">
      <use
         height="100%"
         width="100%"
         y="0"
         x="0"
         id="use550"
         xlink:href="#Symbol_11_0_Layer0_0_FILL" />
    </g>
  </g>
  <g
     transform="translate(432.71458,74.118135)"
     id="body_FL_FL_FL_FL_FL_FL_FL_FL">
    <g
       id="g557">
      <use
         height="100%"
         width="100%"
         y="0"
         x="0"
         id="use555"
         xlink:href="#Symbol_10_0_Layer0_0_FILL" />
    </g>
  </g>
  <g
     transform="translate(411.76458,59.218135)"
     id="armLeft_FL_FL_FL_FL_FL_FL_FL_FL_FL">
    <g
       id="g562">
      <use
         height="100%"
         width="100%"
         y="0"
         x="0"
         id="use560"
         xlink:href="#Symbol_8_0_Layer0_0_FILL" />
    </g>
  </g>
  <g
     transform="translate(412.96458,85.568135)"
     id="handLeft_FL_FL_FL_FL_FL_FL_FL_FL_FL">
    <g
       id="g567">
      <use
         height="100%"
         width="100%"
         y="0"
         x="0"
         id="use565"
         xlink:href="#Symbol_9_0_Layer0_0_FILL" />
    </g>
  </g>
  <g
     transform="matrix(-0.2204895,0.97538757,0.97538757,0.2204895,445.96458,58.718135)"
     id="armRight_FL_FL_FL_FL_FL_FL_FL_FL_FL_FL">
    <g
       id="g572">
      <use
         height="100%"
         width="100%"
         y="0"
         x="0"
         id="use570"
         xlink:href="#Symbol_8_0_Layer0_0_FILL" />
    </g>
  </g>
  <g
     transform="matrix(0.25881958,-0.96591187,0.96591187,0.25881958,473.11458,57.018135)"
     id="handRight_FL_FL_FL_FL_FL_FL_FL_FL_FL_FL">
    <g
       id="g577">
      <use
         height="100%"
         width="100%"
         y="0"
         x="0"
         id="use575"
         xlink:href="#Symbol_9_0_Layer0_0_FILL" />
    </g>
  </g>
  <g
     transform="matrix(0.96592712,0.25880432,-0.23355103,0.87168884,314.39156,60.089235)"
     id="armLeft_FL_FL_FL_FL_FL_FL_FL_FL_FL_FL_FL_FL_FL_FL_FL_FL_FL_FL_FL_FL">
    <g
       id="g1045">
      <use
         height="100%"
         width="100%"
         y="0"
         x="0"
         id="use1043"
         xlink:href="#Symbol_8_0_Layer0_0_FILL" />
    </g>
  </g>
  <g
     transform="matrix(0.96592712,0.25880432,-0.25880432,0.96592712,309.34156,83.989235)"
     id="handLeft_FL_FL_FL_FL_FL_FL_FL_FL_FL_FL_FL_FL_FL_FL_FL_FL_FL_FL_FL_FL">
    <g
       id="g1050">
      <use
         height="100%"
         width="100%"
         y="0"
         x="0"
         id="use1048"
         xlink:href="#Symbol_9_0_Layer0_0_FILL" />
    </g>
  </g>
  <g
     transform="matrix(-0.96592712,0.25880432,0.23355103,0.87168884,348.44156,59.089235)"
     id="armRight_FL_FL_FL_FL_FL_FL_FL_FL_FL_FL_FL_FL_FL_FL_FL_FL_FL_FL_FL_FL_FL_FL_FL">
    <g
       id="g1055">
      <use
         height="100%"
         width="100%"
         y="0"
         x="0"
         id="use1053"
         xlink:href="#Symbol_8_0_Layer0_0_FILL" />
    </g>
  </g>
  <g
     transform="matrix(-0.96592712,0.25880432,0.25880432,0.96592712,353.74156,84.239235)"
     id="handRight_FL_FL_FL_FL_FL_FL_FL_FL_FL_FL_FL_FL_FL_FL_FL_FL_FL_FL_FL_FL_FL_FL">
    <g
       id="g1060">
      <use
         height="100%"
         width="100%"
         y="0"
         x="0"
         id="use1058"
         xlink:href="#Symbol_9_0_Layer0_0_FILL" />
    </g>
  </g>
  <g
     transform="translate(321.59156,83.589235)"
     id="legLeft_FL_FL_FL_FL_FL_FL_FL_FL_FL_FL_FL_FL_FL_FL_FL_FL_FL_FL_FL">
    <g
       id="g1065">
      <use
         height="100%"
         width="100%"
         y="0"
         x="0"
         id="use1063"
         xlink:href="#Symbol_11_0_Layer0_0_FILL" />
    </g>
  </g>
  <g
     transform="matrix(-1,0,0,1,342.74156,83.589235)"
     id="legRight_FL_FL_FL_FL_FL_FL_FL_FL_FL_FL_FL_FL_FL_FL_FL_FL_FL_FL_FL_FL">
    <g
       id="g1070">
      <use
         height="100%"
         width="100%"
         y="0"
         x="0"
         id="use1068"
         xlink:href="#Symbol_11_0_Layer0_0_FILL" />
    </g>
  </g>
  <g
     id="g1081"
     transform="translate(332.19156,73.889235)">
    <g
       id="g1075">
      <use
         height="100%"
         width="100%"
         y="0"
         x="0"
         id="use1073"
         xlink:href="#Symbol_18_0_Layer0_0_FILL" />
    </g>
    <g
       id="g1079"
       transform="matrix(0.7194519,0,0,0.7194519,36.2,-0.35)">
      <use
         height="100%"
         width="100%"
         y="0"
         x="0"
         id="use1077"
         xlink:href="#Symbol_18_0_Layer0_1_FILL" />
    </g>
  </g>
  <g
     id="g1209"
     transform="matrix(0.99693298,0.07824707,-0.07824707,0.99693298,543.98865,54.727095)">
    <g
       id="g1191">
      <use
         height="100%"
         width="100%"
         y="0"
         x="0"
         id="use1189"
         xlink:href="#Symbol_16_0_Layer0_0_MEMBER_0_FILL" />
    </g>
    <g
       id="g1195">
      <use
         height="100%"
         width="100%"
         y="0"
         x="0"
         id="use1193"
         xlink:href="#Symbol_16_0_Layer0_1_FILL" />
    </g>
    <g
       id="g1199"
       transform="translate(66.85,4.9)">
      <use
         height="100%"
         width="100%"
         y="0"
         x="0"
         id="use1197"
         xlink:href="#Symbol_16_0_Layer0_1_MEMBER_0_FILL" />
    </g>
    <g
       id="g1203"
       transform="translate(-0.8)">
      <use
         height="100%"
         width="100%"
         y="0"
         x="0"
         id="use1201"
         xlink:href="#Symbol_16_0_Layer0_1_MEMBER_1_FILL" />
    </g>
    <g
       id="g1207">
      <use
         height="100%"
         width="100%"
         y="0"
         x="0"
         id="use1205"
         xlink:href="#Symbol_16_0_Layer0_2_FILL" />
    </g>
  </g>
  <g
     id="g1277"
     transform="matrix(0.99961853,0.02662659,-0.02662659,0.99961853,429.91458,56.518135)">
    <g
       id="g1263">
      <use
         height="100%"
         width="100%"
         y="0"
         x="0"
         id="use1261"
         xlink:href="#Symbol_15_0_Layer0_0_MEMBER_0_FILL" />
    </g>
    <g
       id="g1267">
      <use
         height="100%"
         width="100%"
         y="0"
         x="0"
         id="use1265"
         xlink:href="#Symbol_15_0_Layer0_1_FILL" />
    </g>
    <g
       id="g1271">
      <use
         height="100%"
         width="100%"
         y="0"
         x="0"
         id="use1269"
         xlink:href="#Symbol_15_0_Layer0_1_MEMBER_0_FILL" />
    </g>
    <g
       id="g1275">
      <use
         height="100%"
         width="100%"
         y="0"
         x="0"
         id="use1273"
         xlink:href="#Symbol_15_0_Layer0_2_FILL" />
    </g>
  </g>
  <g
     id="g1395"
     transform="translate(331.44156,57.389235)">
    <g
       id="g1389">
      <use
         height="100%"
         width="100%"
         y="0"
         x="0"
         id="use1387"
         xlink:href="#Symbol_17_0_Layer0_0_FILL" />
    </g>
    <g
       id="g1393">
      <use
         height="100%"
         width="100%"
         y="0"
         x="0"
         id="use1391"
         xlink:href="#Symbol_17_0_Layer0_1_FILL" />
    </g>
  </g>
  <g
     id="armRight_FL"
     transform="matrix(-0.98774719,0.25880432,0.16003418,0.87168884,45.54769,58.438503)">
    <g
       id="g192">
      <use
         height="100%"
         width="100%"
         y="0"
         x="0"
         xlink:href="#Symbol_8_0_Layer0_0_FILL"
         id="use190" />
    </g>
  </g>
  <g
     id="handRight_FL"
     transform="matrix(-0.98774719,0.25880432,0.17733765,0.96592712,48.74769,83.588503)">
    <g
       id="g197">
      <use
         height="100%"
         width="100%"
         y="0"
         x="0"
         xlink:href="#Symbol_9_0_Layer0_0_FILL"
         id="use195" />
    </g>
  </g>
  <g
     id="legLeft_FL_FL_FL_FL_FL_FL_FL_FL_FL_FL_FL_FL_FL_FL_FL_FL_FL_FL_FL_FL"
     transform="matrix(-1,0,-0.24768066,1,19.19769,83.438503)">
    <g
       id="g1090">
      <use
         height="100%"
         width="100%"
         y="0"
         x="0"
         xlink:href="#Symbol_11_0_Layer0_0_FILL"
         id="use1088" />
    </g>
  </g>
  <g
     id="legRight_FL_FL_FL_FL_FL_FL_FL_FL_FL_FL_FL_FL_FL_FL_FL_FL_FL_FL_FL_FL_FL"
     transform="matrix(-1,0,0.10835266,1,40.34769,83.438503)">
    <g
       id="g1095">
      <use
         height="100%"
         width="100%"
         y="0"
         x="0"
         xlink:href="#Symbol_11_0_Layer0_0_FILL"
         id="use1093" />
    </g>
  </g>
  <g
     id="body_FL_FL_FL_FL_FL_FL_FL_FL_FL_FL_FL_FL_FL_FL_FL_FL_FL_FL_FL_FL_FL"
     transform="translate(29.79769,74.738503)">
    <g
       id="g1100">
      <use
         height="100%"
         width="100%"
         y="0"
         x="0"
         xlink:href="#Symbol_10_0_Layer0_0_FILL"
         id="use1098" />
    </g>
  </g>
  <g
     id="armLeft_FL_FL_FL_FL_FL_FL_FL_FL_FL_FL_FL_FL_FL_FL_FL_FL_FL_FL_FL_FL_FL"
     transform="matrix(0.96601868,0.25842285,-0.23321533,0.87176514,12.99769,58.938503)">
    <g
       id="g1105">
      <use
         height="100%"
         width="100%"
         y="0"
         x="0"
         xlink:href="#Symbol_8_0_Layer0_0_FILL"
         id="use1103" />
    </g>
  </g>
  <g
     id="handLeft_FL_FL_FL_FL_FL_FL_FL_FL_FL_FL_FL_FL_FL_FL_FL_FL_FL_FL_FL_FL_FL"
     transform="matrix(0.96591187,-0.25881958,0.25881958,0.96591187,10.74769,79.888503)">
    <g
       id="g1110">
      <use
         height="100%"
         width="100%"
         y="0"
         x="0"
         xlink:href="#Symbol_9_0_Layer0_0_FILL"
         id="use1108" />
    </g>
  </g>
  <g
     transform="matrix(0.99961853,0.02662659,-0.02662659,0.99961853,28.39769,56.488503)"
     id="g1349">
    <g
       id="g1335">
      <use
         height="100%"
         width="100%"
         y="0"
         x="0"
         xlink:href="#Symbol_15_0_Layer0_0_MEMBER_0_FILL"
         id="use1333" />
    </g>
    <g
       id="g1339">
      <use
         height="100%"
         width="100%"
         y="0"
         x="0"
         xlink:href="#Symbol_15_0_Layer0_1_FILL"
         id="use1337" />
    </g>
    <g
       id="g1343">
      <use
         height="100%"
         width="100%"
         y="0"
         x="0"
         xlink:href="#Symbol_15_0_Layer0_1_MEMBER_0_FILL"
         id="use1341" />
    </g>
    <g
       id="g1347">
      <use
         height="100%"
         width="100%"
         y="0"
         x="0"
         xlink:href="#Symbol_15_0_Layer0_2_FILL"
         id="use1345" />
    </g>
  </g>
  <g
     id="legLeft_FL_FL_FL_FL_FL_FL_FL"
     transform="matrix(-0.86601257,-0.5,-0.5,0.86601257,123.52467,78.9096)">
    <g
       id="g499">
      <use
         height="100%"
         width="100%"
         y="0"
         x="0"
         xlink:href="#Symbol_11_0_Layer0_0_FILL"
         id="use497" />
    </g>
  </g>
  <g
     id="armRight_FL_FL_FL_FL_FL_FL_FL_FL_FL"
     transform="matrix(-0.93521118,-0.3540802,-0.3540802,0.93521118,143.92467,59.2096)">
    <g
       id="g504">
      <use
         height="100%"
         width="100%"
         y="0"
         x="0"
         xlink:href="#Symbol_8_0_Layer0_0_FILL"
         id="use502" />
    </g>
  </g>
  <g
     id="handRight_FL_FL_FL_FL_FL_FL_FL_FL_FL"
     transform="matrix(0.99497986,0.09996033,-0.09996033,0.99497986,142.32467,83.3596)">
    <g
       id="g509">
      <use
         height="100%"
         width="100%"
         y="0"
         x="0"
         xlink:href="#Symbol_9_0_Layer0_0_FILL"
         id="use507" />
    </g>
  </g>
  <g
     id="legRight_FL_FL_FL_FL_FL_FL_FL"
     transform="matrix(-0.99998474,0,0,0.99998474,132.17467,83.9096)">
    <g
       id="g514">
      <use
         height="100%"
         width="100%"
         y="0"
         x="0"
         xlink:href="#Symbol_11_0_Layer0_0_FILL"
         id="use512" />
    </g>
  </g>
  <g
     id="body_FL_FL_FL_FL_FL_FL_FL"
     transform="matrix(0.9992218,0.03942871,-0.03942871,0.9992218,128.12467,72.5596)">
    <g
       id="g519">
      <use
         height="100%"
         width="100%"
         y="0"
         x="0"
         xlink:href="#Symbol_10_0_Layer0_0_FILL"
         id="use517" />
    </g>
  </g>
  <g
     id="armLeft_FL_FL_FL_FL_FL_FL_FL_FL"
     transform="matrix(0.98612976,0.16595459,-0.16595459,0.98612976,113.12467,56.7596)">
    <g
       id="g524">
      <use
         height="100%"
         width="100%"
         y="0"
         x="0"
         xlink:href="#Symbol_8_0_Layer0_0_FILL"
         id="use522" />
    </g>
  </g>
  <g
     id="handLeft_FL_FL_FL_FL_FL_FL_FL_FL"
     transform="matrix(0.97416687,0.22576904,-0.22576904,0.97416687,109.52467,82.1596)">
    <g
       id="g529">
      <use
         height="100%"
         width="100%"
         y="0"
         x="0"
         xlink:href="#Symbol_9_0_Layer0_0_FILL"
         id="use527" />
    </g>
  </g>
  <g
     id="head_FL_FL_FL_FL"
     transform="translate(132.02467,54.8096)">
    <g
       transform="translate(-924.35,-604.1)"
       id="g534">
      <use
         height="100%"
         width="100%"
         y="0"
         x="0"
         xlink:href="#Symbol_12_0_Layer0_0_MEMBER_0_FILL"
         id="use532" />
    </g>
    <g
       id="g538">
      <use
         height="100%"
         width="100%"
         y="0"
         x="0"
         xlink:href="#Symbol_12_0_Layer0_1_FILL"
         id="use536" />
    </g>
    <g
       id="g542">
      <use
         height="100%"
         width="100%"
         y="0"
         x="0"
         xlink:href="#Symbol_12_0_Layer0_2_FILL"
         id="use540" />
    </g>
  </g>
</svg>
